<svg data-v-423bf9ae="" xmlns="http://www.w3.org/2000/svg" viewBox="0 0 1333.3693371728343 193" class="fontAboveSlogan"><!----><!----><!----><g data-v-423bf9ae="" id="9d1e9863-34bb-4469-95be-a169c12adeb6" fill="black" transform="matrix(11.776250839233398,0,0,11.776250839233398,391.7178649902344,-43.73422622680664)"><path d="M0.87 3.98L0.87 13.78L2.66 13.78L2.66 5.94L2.83 5.94L4.86 13.78L7.57 13.78L9.60 5.94L9.77 5.94L9.77 13.78L11.56 13.78L11.56 3.98L8.34 3.98L6.30 11.84L6.13 11.84L4.09 3.98ZM13.24 3.98L13.24 10.30C13.24 12.54 14.63 13.97 17.08 13.97C19.53 13.97 20.92 12.54 20.92 10.30L20.92 3.98L19.07 3.98L19.07 10.33C19.07 11.52 18.35 12.26 17.08 12.26C15.81 12.26 15.09 11.52 15.09 10.33L15.09 3.98ZM22.60 3.98L22.60 13.78L24.44 13.78L24.44 10.19L26.63 10.19C28.43 10.19 29.76 8.96 29.76 7.08C29.76 5.21 28.48 3.98 26.63 3.98ZM24.44 5.71L26.45 5.71C27.33 5.71 27.92 6.24 27.92 7.08C27.92 7.92 27.33 8.46 26.45 8.46L24.44 8.46ZM34.23 3.78C32.33 3.78 30.83 4.87 30.83 6.62C30.83 8.40 31.96 9.09 34.06 9.55L34.19 9.58C35.48 9.86 36.20 10.12 36.20 10.98C36.20 11.69 35.64 12.32 34.45 12.32C32.97 12.32 32.28 11.51 32.28 10.30L32.28 10.08L30.46 10.08L30.46 10.39C30.46 12.68 32.00 13.97 34.40 13.97C36.48 13.97 38.02 12.87 38.02 10.89C38.02 9.11 36.83 8.40 34.82 7.95L34.69 7.92C33.52 7.66 32.65 7.49 32.65 6.58C32.65 5.92 33.25 5.43 34.23 5.43C35.35 5.43 36.06 5.92 36.06 7.03L36.06 7.31L37.86 7.31L37.86 6.89C37.86 4.93 36.33 3.78 34.23 3.78ZM39.48 3.98L39.48 13.78L45.86 13.78L45.86 12.07L41.33 12.07L41.33 3.98Z"></path></g><!----><!----><g data-v-423bf9ae="" id="3e77d4ff-d86c-4d99-80a1-5b5c8c3a4468" fill="black" transform="matrix(4.6260600090026855,0,0,4.6260600090026855,-4.02468204498291,116.2999267578125)"><path d="M0.87 3.98L0.87 13.78L2.66 13.78L2.66 5.94L2.83 5.94L4.86 13.78L7.57 13.78L9.60 5.94L9.77 5.94L9.77 13.78L11.56 13.78L11.56 3.98L8.34 3.98L6.30 11.84L6.13 11.84L4.09 3.98ZM12.91 4.82C12.91 5.53 13.45 6.02 14.15 6.02C14.85 6.02 15.40 5.53 15.40 4.82C15.40 4.10 14.85 3.61 14.15 3.61C13.45 3.61 12.91 4.10 12.91 4.82ZM15.04 6.83L13.27 6.83L13.27 13.78L15.04 13.78ZM16.72 6.83L16.72 13.78L18.48 13.78L18.48 10.19C18.48 8.96 19.08 8.26 20.22 8.26C21.22 8.26 21.78 8.83 21.78 9.80L21.78 13.78L23.55 13.78L23.55 9.63C23.55 7.83 22.39 6.72 20.85 6.72C19.57 6.72 18.93 7.31 18.65 7.95L18.45 7.95L18.45 6.83ZM30.32 6.83L30.32 7.81L30.13 7.81C29.76 7.22 29.15 6.64 27.92 6.64C26.18 6.64 24.72 8.12 24.72 10.19C24.72 12.26 26.18 13.75 27.92 13.75C29.15 13.75 29.76 13.16 30.13 12.57L30.30 12.57L30.30 14.62C30.30 14.90 30.16 15.04 29.90 15.04L25.42 15.04L25.42 16.58L30.69 16.58C31.47 16.58 32.06 16.02 32.06 15.23L32.06 6.83ZM28.39 12.18C27.33 12.18 26.49 11.48 26.49 10.19C26.49 8.90 27.33 8.20 28.39 8.20C29.48 8.20 30.30 8.93 30.30 10.19C30.30 11.45 29.48 12.18 28.39 12.18ZM33.49 8.79C33.49 10.08 34.37 10.68 36.32 10.95L36.53 10.98C37.28 11.07 38.00 11.13 38.00 11.65C38.00 12.19 37.34 12.49 36.65 12.49C35.76 12.49 34.83 12.04 34.40 11.13L32.98 12.01C33.63 12.99 34.69 13.97 36.61 13.97C38.46 13.97 39.73 12.98 39.73 11.62C39.73 10.35 38.91 9.79 36.68 9.49L36.47 9.46C35.74 9.37 35.22 9.28 35.22 8.78C35.22 8.36 35.59 8.09 36.22 8.09C37.14 8.09 37.84 8.62 38.37 9.25L39.65 8.25C38.71 7.27 37.70 6.64 36.27 6.64C34.66 6.64 33.49 7.50 33.49 8.79ZM40.85 3.98L40.85 10.30C40.85 12.54 42.24 13.97 44.69 13.97C47.14 13.97 48.52 12.54 48.52 10.30L48.52 3.98L46.68 3.98L46.68 10.33C46.68 11.52 45.96 12.26 44.69 12.26C43.41 12.26 42.70 11.52 42.70 10.33L42.70 3.98ZM49.48 6.83L49.48 8.37L51.24 8.37L51.24 12.43C51.24 13.22 51.83 13.78 52.61 13.78L54.52 13.78L54.52 12.24L53.40 12.24C53.14 12.24 53.00 12.10 53.00 11.82L53.00 8.37L54.91 8.37L54.91 6.83L53.00 6.83L53.00 4.68L51.24 4.68L51.24 6.83ZM55.86 4.82C55.86 5.53 56.41 6.02 57.11 6.02C57.81 6.02 58.35 5.53 58.35 4.82C58.35 4.10 57.81 3.61 57.11 3.61C56.41 3.61 55.86 4.10 55.86 4.82ZM57.99 6.83L56.22 6.83L56.22 13.78L57.99 13.78ZM61.43 3.98L59.67 3.98L59.67 13.78L61.43 13.78ZM62.75 4.82C62.75 5.53 63.29 6.02 63.99 6.02C64.69 6.02 65.24 5.53 65.24 4.82C65.24 4.10 64.69 3.61 63.99 3.61C63.29 3.61 62.75 4.10 62.75 4.82ZM64.88 6.83L63.11 6.83L63.11 13.78L64.88 13.78ZM65.86 6.83L65.86 8.37L67.62 8.37L67.62 12.43C67.62 13.22 68.21 13.78 68.99 13.78L70.90 13.78L70.90 12.24L69.78 12.24C69.52 12.24 69.38 12.10 69.38 11.82L69.38 8.37L71.29 8.37L71.29 6.83L69.38 6.83L69.38 4.68L67.62 4.68L67.62 6.83ZM72.24 4.82C72.24 5.53 72.79 6.02 73.49 6.02C74.19 6.02 74.73 5.53 74.73 4.82C74.73 4.10 74.19 3.61 73.49 3.61C72.79 3.61 72.24 4.10 72.24 4.82ZM74.37 6.83L72.60 6.83L72.60 13.78L74.37 13.78ZM75.63 10.25C75.63 12.40 77.13 13.97 79.20 13.97C81.06 13.97 81.87 12.99 82.35 12.26L80.84 11.40C80.60 11.89 80.15 12.43 79.17 12.43C78.16 12.43 77.50 11.72 77.46 10.82L82.60 10.82L82.60 10.14C82.60 8.05 81.19 6.64 79.17 6.64C77.13 6.64 75.63 8.15 75.63 10.25ZM77.48 9.59C77.59 8.76 78.16 8.18 79.16 8.18C80.07 8.18 80.68 8.74 80.78 9.59ZM83.61 8.79C83.61 10.08 84.49 10.68 86.44 10.95L86.65 10.98C87.40 11.07 88.12 11.13 88.12 11.65C88.12 12.19 87.46 12.49 86.77 12.49C85.88 12.49 84.95 12.04 84.52 11.13L83.10 12.01C83.75 12.99 84.81 13.97 86.73 13.97C88.58 13.97 89.85 12.98 89.85 11.62C89.85 10.35 89.03 9.79 86.80 9.49L86.59 9.46C85.86 9.37 85.34 9.28 85.34 8.78C85.34 8.36 85.71 8.09 86.34 8.09C87.26 8.09 87.96 8.62 88.49 9.25L89.77 8.25C88.83 7.27 87.82 6.64 86.39 6.64C84.78 6.64 83.61 7.50 83.61 8.79ZM90.80 5.11C90.80 5.85 91.38 6.36 92.11 6.36C92.22 6.36 92.32 6.34 92.37 6.33L92.37 6.78C92.37 7.04 92.26 7.17 91.97 7.17L90.89 7.17L90.89 8.12L92.22 8.12C92.93 8.12 93.46 7.57 93.46 6.86L93.46 5.08C93.46 4.31 92.89 3.77 92.13 3.77C91.38 3.77 90.80 4.31 90.80 5.11ZM94.70 8.79C94.70 10.08 95.58 10.68 97.52 10.95L97.73 10.98C98.49 11.07 99.20 11.13 99.20 11.65C99.20 12.19 98.55 12.49 97.86 12.49C96.96 12.49 96.04 12.04 95.61 11.13L94.19 12.01C94.84 12.99 95.90 13.97 97.82 13.97C99.67 13.97 100.94 12.98 100.94 11.62C100.94 10.35 100.11 9.79 97.89 9.49L97.68 9.46C96.95 9.37 96.43 9.28 96.43 8.78C96.43 8.36 96.80 8.09 97.43 8.09C98.35 8.09 99.05 8.62 99.58 9.25L100.86 8.25C99.92 7.27 98.91 6.64 97.48 6.64C95.87 6.64 94.70 7.50 94.70 8.79ZM105.90 3.98L105.90 13.78L107.74 13.78L107.74 10.19L109.93 10.19C111.73 10.19 113.06 8.96 113.06 7.08C113.06 5.21 111.78 3.98 109.93 3.98ZM107.74 5.71L109.75 5.71C110.63 5.71 111.22 6.24 111.22 7.08C111.22 7.92 110.63 8.46 109.75 8.46L107.74 8.46ZM115.86 6.83L114.13 6.83L114.13 13.78L115.89 13.78L115.89 9.88C115.89 8.90 116.54 8.43 117.43 8.43L118.47 8.43L118.47 6.80L117.77 6.80C116.89 6.80 116.30 7.07 116.03 7.84L115.86 7.84ZM119.08 10.30C119.08 12.49 120.68 13.97 122.72 13.97C124.77 13.97 126.36 12.49 126.36 10.30C126.36 8.12 124.77 6.64 122.72 6.64C120.68 6.64 119.08 8.12 119.08 10.30ZM120.85 10.30C120.85 9.07 121.60 8.26 122.72 8.26C123.84 8.26 124.60 9.07 124.60 10.30C124.60 11.54 123.84 12.35 122.72 12.35C121.60 12.35 120.85 11.54 120.85 10.30ZM126.92 6.83L126.92 8.37L128.69 8.37L128.69 12.43C128.69 13.22 129.28 13.78 130.06 13.78L131.96 13.78L131.96 12.24L130.84 12.24C130.59 12.24 130.45 12.10 130.45 11.82L130.45 8.37L132.36 8.37L132.36 6.83L130.45 6.83L130.45 4.68L128.69 4.68L128.69 6.83ZM133.25 10.25C133.25 12.40 134.75 13.97 136.82 13.97C138.68 13.97 139.50 12.99 139.97 12.26L138.46 11.40C138.22 11.89 137.77 12.43 136.79 12.43C135.79 12.43 135.13 11.72 135.09 10.82L140.22 10.82L140.22 10.14C140.22 8.05 138.81 6.64 136.79 6.64C134.75 6.64 133.25 8.15 133.25 10.25ZM135.10 9.59C135.21 8.76 135.79 8.18 136.78 8.18C137.69 8.18 138.31 8.74 138.40 9.59ZM141.06 10.30C141.06 12.46 142.66 13.97 144.68 13.97C146.62 13.97 147.84 12.89 148.18 11.31L146.44 10.88C146.26 11.76 145.77 12.35 144.70 12.35C143.57 12.35 142.83 11.54 142.83 10.30C142.83 9.07 143.64 8.26 144.70 8.26C145.77 8.26 146.31 8.93 146.44 9.74L148.18 9.30C147.81 7.71 146.61 6.64 144.68 6.64C142.66 6.64 141.06 8.15 141.06 10.30ZM148.62 6.83L148.62 8.37L150.39 8.37L150.39 12.43C150.39 13.22 150.98 13.78 151.76 13.78L153.66 13.78L153.66 12.24L152.54 12.24C152.29 12.24 152.15 12.10 152.15 11.82L152.15 8.37L154.06 8.37L154.06 6.83L152.15 6.83L152.15 4.68L150.39 4.68L150.39 6.83ZM154.95 10.25C154.95 12.40 156.45 13.97 158.52 13.97C160.38 13.97 161.20 12.99 161.67 12.26L160.16 11.40C159.92 11.89 159.47 12.43 158.49 12.43C157.49 12.43 156.83 11.72 156.79 10.82L161.92 10.82L161.92 10.14C161.92 8.05 160.51 6.64 158.49 6.64C156.45 6.64 154.95 8.15 154.95 10.25ZM156.80 9.59C156.91 8.76 157.49 8.18 158.48 8.18C159.39 8.18 160.01 8.74 160.10 9.59ZM170.10 3.98L168.34 3.98L168.34 7.81L168.17 7.81C167.80 7.22 167.19 6.64 165.96 6.64C164.22 6.64 162.76 8.18 162.76 10.30C162.76 12.43 164.22 13.97 165.96 13.97C167.19 13.97 167.80 13.38 168.17 12.80L168.36 12.80L168.36 13.78L170.10 13.78ZM166.43 8.20C167.52 8.20 168.34 8.99 168.34 10.30C168.34 11.62 167.52 12.40 166.43 12.40C165.37 12.40 164.53 11.65 164.53 10.30C164.53 8.96 165.37 8.20 166.43 8.20ZM178.96 3.78C177.06 3.78 175.56 4.87 175.56 6.62C175.56 8.40 176.69 9.09 178.79 9.55L178.92 9.58C180.21 9.86 180.94 10.12 180.94 10.98C180.94 11.69 180.38 12.32 179.19 12.32C177.70 12.32 177.02 11.51 177.02 10.30L177.02 10.08L175.20 10.08L175.20 10.39C175.20 12.68 176.74 13.97 179.13 13.97C181.22 13.97 182.76 12.87 182.76 10.89C182.76 9.11 181.57 8.40 179.55 7.95L179.42 7.92C178.25 7.66 177.38 7.49 177.38 6.58C177.38 5.92 177.98 5.43 178.96 5.43C180.08 5.43 180.80 5.92 180.80 7.03L180.80 7.31L182.59 7.31L182.59 6.89C182.59 4.93 181.06 3.78 178.96 3.78ZM183.76 10.30C183.76 12.49 185.36 13.97 187.40 13.97C189.45 13.97 191.04 12.49 191.04 10.30C191.04 8.12 189.45 6.64 187.40 6.64C185.36 6.64 183.76 8.12 183.76 10.30ZM185.53 10.30C185.53 9.07 186.28 8.26 187.40 8.26C188.52 8.26 189.28 9.07 189.28 10.30C189.28 11.54 188.52 12.35 187.40 12.35C186.28 12.35 185.53 11.54 185.53 10.30ZM191.77 6.83L191.77 8.37L193.54 8.37L193.54 13.78L195.30 13.78L195.30 8.37L197.12 8.37L197.12 6.83L195.30 6.83L195.30 5.94C195.30 5.66 195.44 5.52 195.69 5.52L196.76 5.52L196.76 3.98L194.94 3.98C194.12 3.98 193.54 4.59 193.54 5.40L193.54 6.83ZM197.60 6.83L197.60 8.37L199.36 8.37L199.36 12.43C199.36 13.22 199.95 13.78 200.73 13.78L202.64 13.78L202.64 12.24L201.52 12.24C201.26 12.24 201.12 12.10 201.12 11.82L201.12 8.37L203.03 8.37L203.03 6.83L201.12 6.83L201.12 4.68L199.36 4.68L199.36 6.83ZM203.70 6.83L205.07 13.78L207.59 13.78L208.68 8.34L208.85 8.34L209.94 13.78L212.46 13.78L213.84 6.83L212.07 6.83L211.25 12.26L211.08 12.26L209.99 6.83L207.55 6.83L206.46 12.26L206.29 12.26L205.46 6.83ZM214.54 8.43L215.96 9.35C216.40 8.62 216.97 8.15 217.90 8.15C218.85 8.15 219.35 8.67 219.35 9.32L219.35 9.49L216.57 9.80C215.28 9.94 214.40 10.70 214.40 11.80C214.40 13.13 215.43 13.97 217.00 13.97C218.50 13.97 219.02 13.24 219.18 12.94L219.38 12.94L219.38 13.78L221.12 13.78L221.12 9.34C221.12 7.71 219.88 6.64 217.99 6.64C216.30 6.64 215.36 7.39 214.54 8.43ZM216.24 11.70C216.24 11.30 216.57 11.06 217.22 10.98L219.35 10.72L219.35 10.84C219.35 11.79 218.67 12.52 217.43 12.52C216.65 12.52 216.24 12.18 216.24 11.70ZM224.45 6.83L222.71 6.83L222.71 13.78L224.48 13.78L224.48 9.88C224.48 8.90 225.12 8.43 226.02 8.43L227.05 8.43L227.05 6.80L226.35 6.80C225.47 6.80 224.88 7.07 224.62 7.84L224.45 7.84ZM227.67 10.25C227.67 12.40 229.17 13.97 231.24 13.97C233.10 13.97 233.91 12.99 234.39 12.26L232.88 11.40C232.64 11.89 232.19 12.43 231.21 12.43C230.20 12.43 229.54 11.72 229.50 10.82L234.64 10.82L234.64 10.14C234.64 8.05 233.23 6.64 231.21 6.64C229.17 6.64 227.67 8.15 227.67 10.25ZM229.52 9.59C229.63 8.76 230.20 8.18 231.20 8.18C232.11 8.18 232.72 8.74 232.82 9.59ZM239.71 3.98L239.71 13.78L246.09 13.78L246.09 12.07L241.56 12.07L241.56 3.98ZM246.82 4.82C246.82 5.53 247.37 6.02 248.07 6.02C248.77 6.02 249.31 5.53 249.31 4.82C249.31 4.10 248.77 3.61 248.07 3.61C247.37 3.61 246.82 4.10 246.82 4.82ZM248.95 6.83L247.18 6.83L247.18 13.78L248.95 13.78ZM250.21 10.30C250.21 12.46 251.80 13.97 253.82 13.97C255.77 13.97 256.98 12.89 257.32 11.31L255.58 10.88C255.40 11.76 254.91 12.35 253.85 12.35C252.71 12.35 251.97 11.54 251.97 10.30C251.97 9.07 252.78 8.26 253.85 8.26C254.91 8.26 255.46 8.93 255.58 9.74L257.32 9.30C256.96 7.71 255.75 6.64 253.82 6.64C251.80 6.64 250.21 8.15 250.21 10.30ZM258.05 10.25C258.05 12.40 259.55 13.97 261.62 13.97C263.48 13.97 264.29 12.99 264.77 12.26L263.26 11.40C263.02 11.89 262.57 12.43 261.59 12.43C260.58 12.43 259.92 11.72 259.88 10.82L265.02 10.82L265.02 10.14C265.02 8.05 263.61 6.64 261.59 6.64C259.55 6.64 258.05 8.15 258.05 10.25ZM259.90 9.59C260.01 8.76 260.58 8.18 261.58 8.18C262.49 8.18 263.10 8.74 263.20 9.59ZM266.28 6.83L266.28 13.78L268.04 13.78L268.04 10.19C268.04 8.96 268.65 8.26 269.78 8.26C270.79 8.26 271.35 8.83 271.35 9.80L271.35 13.78L273.11 13.78L273.11 9.63C273.11 7.83 271.95 6.72 270.41 6.72C269.14 6.72 268.49 7.31 268.21 7.95L268.02 7.95L268.02 6.83ZM274.29 10.30C274.29 12.46 275.88 13.97 277.90 13.97C279.85 13.97 281.06 12.89 281.40 11.31L279.66 10.88C279.48 11.76 278.99 12.35 277.93 12.35C276.79 12.35 276.05 11.54 276.05 10.30C276.05 9.07 276.86 8.26 277.93 8.26C278.99 8.26 279.54 8.93 279.66 9.74L281.40 9.30C281.04 7.71 279.83 6.64 277.90 6.64C275.88 6.64 274.29 8.15 274.29 10.30ZM282.13 10.25C282.13 12.40 283.63 13.97 285.70 13.97C287.56 13.97 288.37 12.99 288.85 12.26L287.34 11.40C287.10 11.89 286.65 12.43 285.67 12.43C284.66 12.43 284.00 11.72 283.96 10.82L289.10 10.82L289.10 10.14C289.10 8.05 287.69 6.64 285.67 6.64C283.63 6.64 282.13 8.15 282.13 10.25ZM283.98 9.59C284.09 8.76 284.66 8.18 285.66 8.18C286.57 8.18 287.18 8.74 287.28 9.59Z"></path></g></svg>