<svg data-v-423bf9ae="" xmlns="http://www.w3.org/2000/svg" viewBox="0 0 506 90" class="iconLeft"><!----><!----><!----><g data-v-423bf9ae="" id="1aa82ebd-8200-4080-9c73-5b4349cc7cb2" fill="#ffffff" transform="matrix(4.5558085441589355,0,0,4.5558085441589355,106.17311096191406,3.9749436378479004)"><path d="M2.89 12.67L0.84 12.67L0.84 2.42L1.52 2.42L5.97 7.48L10.42 2.42L11.10 2.42L11.10 12.67L9.05 12.67L9.04 6.73L5.97 10.14L2.89 6.73L2.89 12.67ZM14.90 12.67L12.99 12.67L12.99 5.83L14.90 5.83L14.90 12.67ZM12.92 4.20L12.92 4.20L12.92 4.20Q12.92 4.61 13.19 4.88L13.19 4.88L13.19 4.88Q13.47 5.15 13.95 5.15L13.95 5.15L13.95 5.15Q14.42 5.15 14.70 4.88L14.70 4.88L14.70 4.88Q14.97 4.61 14.97 4.20L14.97 4.20L14.97 4.20Q14.97 3.79 14.70 3.51L14.70 3.51L14.70 3.51Q14.42 3.23 13.93 3.23L13.93 3.23L13.93 3.23Q13.47 3.23 13.19 3.51L13.19 3.51L13.19 3.51Q12.92 3.79 12.92 4.20ZM18.48 8.33L18.48 8.33L18.48 12.67L16.57 12.67L16.57 6.04L18.48 5.83L18.48 6.45L18.48 6.45Q19.17 5.84 20.13 5.84L20.13 5.84L20.13 5.84Q21.42 5.84 22.11 6.62L22.11 6.62L22.11 6.62Q22.79 7.41 22.79 8.44L22.79 8.44L22.79 12.67L20.88 12.67L20.88 8.91L20.88 8.91Q20.88 8.23 20.54 7.85L20.54 7.85L20.54 7.85Q20.19 7.48 19.50 7.46L19.50 7.46L19.50 7.46Q18.91 7.50 18.48 8.33ZM28.94 5.84L30.85 6.04L30.85 12.13L30.85 12.13Q30.85 13.56 30.00 14.53L30.00 14.53L30.00 14.53Q29.14 15.49 27.84 15.54L27.84 15.54L27.43 15.59L27.43 15.59Q25.45 15.54 24.36 14.45L24.36 14.45L25.25 13.43L25.25 13.43Q26.00 13.97 27.07 14.04L27.07 14.04L27.07 14.04Q28.16 14.04 28.55 13.53L28.55 13.53L28.55 13.53Q28.94 13.02 28.94 12.40L28.94 12.40L28.94 12.06L28.94 12.06Q28.17 12.67 27.16 12.67L27.16 12.67L27.16 12.67Q25.59 12.67 24.80 11.75L24.80 11.75L24.80 11.75Q24.01 10.83 24.01 9.26L24.01 9.26L24.01 9.26Q24.01 7.75 24.87 6.79L24.87 6.79L24.87 6.79Q25.72 5.84 27.30 5.84L27.30 5.84L27.30 5.84Q28.46 5.91 28.94 6.46L28.94 6.46L28.94 5.84ZM28.94 9.87L28.94 9.87L28.94 8.76L28.94 8.76Q28.80 7.62 27.50 7.42L27.50 7.42L27.50 7.42Q25.79 7.48 25.66 9.12L25.66 9.12L25.66 9.12Q25.72 11.03 27.50 11.10L27.50 11.10L27.50 11.10Q28.80 10.90 28.94 9.87ZM34.58 5.80L34.58 5.80Q35.55 5.80 36.08 6.03L36.08 6.03L36.08 6.03Q36.61 6.26 37.08 6.72L37.08 6.72L36.01 7.92L36.01 7.92Q35.55 7.37 34.85 7.37L34.85 7.37L34.85 7.37Q34.16 7.37 33.93 7.63L33.93 7.63L33.93 7.63Q33.69 7.88 33.93 8.09L33.93 8.09L33.93 8.09Q34.16 8.30 34.85 8.44L34.85 8.44L34.85 8.44Q35.87 8.53 36.52 9.02L36.52 9.02L36.52 9.02Q37.17 9.50 37.17 10.71L37.17 10.71L37.17 10.71Q37.17 11.68 36.40 12.21L36.40 12.21L36.40 12.21Q35.64 12.74 34.62 12.74L34.62 12.74L34.62 12.74Q33.65 12.74 33.00 12.47L33.00 12.47L33.00 12.47Q32.35 12.19 31.89 11.72L31.89 11.72L32.95 10.53L32.95 10.53Q33.41 11.08 34.39 11.17L34.39 11.17L34.39 11.17Q35.18 11.17 35.41 10.91L35.41 10.91L35.41 10.91Q35.64 10.66 35.48 10.40L35.48 10.40L35.48 10.40Q35.31 10.14 34.39 10.06L34.39 10.06L34.39 10.06Q33.56 9.96 32.86 9.54L32.86 9.54L32.86 9.54Q32.17 9.13 32.17 7.97L32.17 7.97L32.17 7.97Q32.17 6.91 32.96 6.35L32.96 6.35L32.96 6.35Q33.75 5.80 34.58 5.80L34.58 5.80ZM40.61 2.42L38.56 2.42L38.56 8.91L38.56 8.91Q38.56 10.49 39.83 11.58L39.83 11.58L39.83 11.58Q41.09 12.67 43.00 12.67L43.00 12.67L43.00 12.67Q44.92 12.67 46.18 11.58L46.18 11.58L46.18 11.58Q47.45 10.49 47.45 8.91L47.45 8.91L47.45 2.42L45.40 2.42L45.40 8.37L45.40 8.37Q45.40 9.53 44.71 10.08L44.71 10.08L44.71 10.08Q44.03 10.62 43.00 10.62L43.00 10.62L43.00 10.62Q41.98 10.62 41.30 10.08L41.30 10.08L41.30 10.08Q40.61 9.53 40.61 8.37L40.61 8.37L40.61 2.42ZM53.72 12.35L53.72 12.35Q53.23 12.67 52.60 12.67L52.60 12.67L52.60 12.67Q51.43 12.67 50.75 12.02L50.75 12.02L50.75 12.02Q50.07 11.38 50.07 10.35L50.07 10.35L50.07 7.39L49.04 7.39L49.04 5.84L50.07 5.84L50.07 3.99L51.99 3.79L51.99 5.84L53.01 5.84L53.01 7.39L51.99 7.39L51.99 10.08L51.99 10.08Q51.99 10.62 52.22 10.85L52.22 10.85L52.22 10.85Q52.45 11.07 52.81 11.07L52.81 11.07L52.81 11.07Q52.92 11.07 53.32 10.98L53.32 10.98L53.72 12.35ZM56.80 12.67L54.89 12.67L54.89 5.83L56.80 5.83L56.80 12.67ZM54.82 4.20L54.82 4.20L54.82 4.20Q54.82 4.61 55.09 4.88L55.09 4.88L55.09 4.88Q55.36 5.15 55.84 5.15L55.84 5.15L55.84 5.15Q56.32 5.15 56.59 4.88L56.59 4.88L56.59 4.88Q56.87 4.61 56.87 4.20L56.87 4.20L56.87 4.20Q56.87 3.79 56.59 3.51L56.59 3.51L56.59 3.51Q56.32 3.23 55.83 3.23L55.83 3.23L55.83 3.23Q55.36 3.23 55.09 3.51L55.09 3.51L55.09 3.51Q54.82 3.79 54.82 4.20ZM60.38 12.67L58.47 12.67L58.47 2.42L60.38 2.42L60.38 12.67ZM64.30 12.67L62.38 12.67L62.38 5.83L64.30 5.83L64.30 12.67ZM62.32 4.20L62.32 4.20L62.32 4.20Q62.32 4.61 62.59 4.88L62.59 4.88L62.59 4.88Q62.86 5.15 63.34 5.15L63.34 5.15L63.34 5.15Q63.82 5.15 64.09 4.88L64.09 4.88L64.09 4.88Q64.37 4.61 64.37 4.20L64.37 4.20L64.37 4.20Q64.37 3.79 64.09 3.51L64.09 3.51L64.09 3.51Q63.82 3.23 63.33 3.23L63.33 3.23L63.33 3.23Q62.86 3.23 62.59 3.51L62.59 3.51L62.59 3.51Q62.32 3.79 62.32 4.20ZM70.18 12.35L70.18 12.35Q69.69 12.67 69.06 12.67L69.06 12.67L69.06 12.67Q67.89 12.67 67.21 12.02L67.21 12.02L67.21 12.02Q66.53 11.38 66.53 10.35L66.53 10.35L66.53 7.39L65.50 7.39L65.50 5.84L66.53 5.84L66.53 3.99L68.45 3.79L68.45 5.84L69.47 5.84L69.47 7.39L68.45 7.39L68.45 10.08L68.45 10.08Q68.45 10.62 68.68 10.85L68.68 10.85L68.68 10.85Q68.91 11.07 69.27 11.07L69.27 11.07L69.27 11.07Q69.38 11.07 69.78 10.98L69.78 10.98L70.18 12.35ZM73.26 12.67L71.35 12.67L71.35 5.83L73.26 5.83L73.26 12.67ZM71.28 4.20L71.28 4.20L71.28 4.20Q71.28 4.61 71.55 4.88L71.55 4.88L71.55 4.88Q71.83 5.15 72.30 5.15L72.30 5.15L72.30 5.15Q72.78 5.15 73.06 4.88L73.06 4.88L73.06 4.88Q73.33 4.61 73.33 4.20L73.33 4.20L73.33 4.20Q73.33 3.79 73.06 3.51L73.06 3.51L73.06 3.51Q72.78 3.23 72.29 3.23L72.29 3.23L72.29 3.23Q71.83 3.23 71.55 3.51L71.55 3.51L71.55 3.51Q71.28 3.79 71.28 4.20ZM74.57 9.26L74.57 9.26L74.57 9.26Q74.57 7.75 75.52 6.79L75.52 6.79L75.52 6.79Q76.48 5.84 77.98 5.84L77.98 5.84L77.98 5.84Q79.49 5.84 80.38 6.79L80.38 6.79L80.38 6.79Q81.27 7.75 81.27 9.26L81.27 9.26L81.27 9.94L76.55 9.94L76.55 9.94Q76.62 10.49 77.03 10.79L77.03 10.79L77.03 10.79Q77.44 11.10 77.98 11.10L77.98 11.10L77.98 11.10Q78.94 11.10 79.69 10.55L79.69 10.55L80.79 11.65L80.79 11.65Q80.04 12.67 77.98 12.67L77.98 12.67L77.98 12.67Q76.48 12.67 75.52 11.72L75.52 11.72L75.52 11.72Q74.57 10.76 74.57 9.26ZM79.35 8.57L79.35 8.57Q79.35 8.03 78.94 7.72L78.94 7.72L78.94 7.72Q78.53 7.41 77.98 7.41L77.98 7.41L77.98 7.41Q77.44 7.41 77.03 7.72L77.03 7.72L77.03 7.72Q76.62 8.03 76.62 8.57L76.62 8.57L79.35 8.57ZM85.13 5.80L85.13 5.80Q86.10 5.80 86.63 6.03L86.63 6.03L86.63 6.03Q87.17 6.26 87.63 6.72L87.63 6.72L86.56 7.92L86.56 7.92Q86.10 7.37 85.40 7.37L85.40 7.37L85.40 7.37Q84.71 7.37 84.48 7.63L84.48 7.63L84.48 7.63Q84.25 7.88 84.48 8.09L84.48 8.09L84.48 8.09Q84.71 8.30 85.40 8.44L85.40 8.44L85.40 8.44Q86.42 8.53 87.07 9.02L87.07 9.02L87.07 9.02Q87.72 9.50 87.72 10.71L87.72 10.71L87.72 10.71Q87.72 11.68 86.95 12.21L86.95 12.21L86.95 12.21Q86.19 12.74 85.17 12.74L85.17 12.74L85.17 12.74Q84.20 12.74 83.55 12.47L83.55 12.47L83.55 12.47Q82.91 12.19 82.44 11.72L82.44 11.72L83.50 10.53L83.50 10.53Q83.97 11.08 84.94 11.17L84.94 11.17L84.94 11.17Q85.73 11.17 85.96 10.91L85.96 10.91L85.96 10.91Q86.19 10.66 86.03 10.40L86.03 10.40L86.03 10.40Q85.87 10.14 84.94 10.06L84.94 10.06L84.94 10.06Q84.11 9.96 83.42 9.54L83.42 9.54L83.42 9.54Q82.72 9.13 82.72 7.97L82.72 7.97L82.72 7.97Q82.72 6.91 83.51 6.35L83.51 6.35L83.51 6.35Q84.30 5.80 85.13 5.80L85.13 5.80Z"></path></g><!----><g data-v-423bf9ae="" id="30d8dbbb-b77f-4c17-8946-629961e6fcde" transform="matrix(1.5517241954803467,0,0,1.5517241954803467,-4.655174255371094,-4.659036159515381)" stroke="none" fill="#ffffff"><path d="M3 25.007h8v6H3zM3 58.007c0 1.654 1.346 3 3 3h5v-28H3v25zM3 6.007v17h8v-20H6c-1.654 0-3 1.346-3 3zM47 11.007v-5c0-1.654-1.346-3-3-3H13v18.692l9.801-10.692H47zM25 44.007c0-10.477 8.523-19 19-19 1.023 0 2.02.104 3 .261v-4.261H27.199l-11 12H13v28h22.566C29.315 57.893 25 51.452 25 44.007z"></path><path d="M26.32 19.007H47v-6H23.68L13 24.658v6.349h2.32zM44 37.007c-3.859 0-7 3.141-7 7s3.141 7 7 7 7-3.141 7-7-3.141-7-7-7zm0 12c-2.757 0-5-2.243-5-5s2.243-5 5-5 5 2.243 5 5-2.243 5-5 5z"></path><circle cx="44" cy="44.007" r="3"></circle><path d="M44 27.007c-9.374 0-17 7.626-17 17s7.626 17 17 17 17-7.626 17-17-7.626-17-17-17zm-15 17h2c0 .618.044 1.244.132 1.859l-1.98.281a15.194 15.194 0 0 1-.152-2.14zm15 15c-6.589 0-12.501-4.406-14.378-10.715l1.916-.57c1.627 5.467 6.751 9.285 12.462 9.285v2zm0-6c-4.963 0-9-4.037-9-9s4.037-9 9-9 9 4.037 9 9-4.037 9-9 9z"></path></g><!----></svg>