<svg data-v-423bf9ae="" xmlns="http://www.w3.org/2000/svg" viewBox="0 0 411.62680290949334 60" class="font"><!----><!----><!----><g data-v-423bf9ae="" id="c2306c29-81ff-4393-995c-bb7f0c3ee884" fill="white" transform="matrix(4.6260600090026855,0,0,4.6260600090026855,-4.024666786193848,-16.700077056884766)"><path d="M0.87 3.98L0.87 13.78L2.66 13.78L2.66 5.94L2.83 5.94L4.86 13.78L7.57 13.78L9.60 5.94L9.77 5.94L9.77 13.78L11.56 13.78L11.56 3.98L8.34 3.98L6.30 11.84L6.13 11.84L4.09 3.98ZM12.91 4.82C12.91 5.53 13.45 6.02 14.15 6.02C14.85 6.02 15.40 5.53 15.40 4.82C15.40 4.10 14.85 3.61 14.15 3.61C13.45 3.61 12.91 4.10 12.91 4.82ZM15.04 6.83L13.27 6.83L13.27 13.78L15.04 13.78ZM16.72 6.83L16.72 13.78L18.48 13.78L18.48 10.19C18.48 8.96 19.08 8.26 20.22 8.26C21.22 8.26 21.78 8.83 21.78 9.80L21.78 13.78L23.55 13.78L23.55 9.63C23.55 7.83 22.39 6.72 20.85 6.72C19.57 6.72 18.93 7.31 18.65 7.95L18.45 7.95L18.45 6.83ZM30.32 6.83L30.32 7.81L30.13 7.81C29.76 7.22 29.15 6.64 27.92 6.64C26.18 6.64 24.72 8.12 24.72 10.19C24.72 12.26 26.18 13.75 27.92 13.75C29.15 13.75 29.76 13.16 30.13 12.57L30.30 12.57L30.30 14.62C30.30 14.90 30.16 15.04 29.90 15.04L25.42 15.04L25.42 16.58L30.69 16.58C31.47 16.58 32.06 16.02 32.06 15.23L32.06 6.83ZM28.39 12.18C27.33 12.18 26.49 11.48 26.49 10.19C26.49 8.90 27.33 8.20 28.39 8.20C29.48 8.20 30.30 8.93 30.30 10.19C30.30 11.45 29.48 12.18 28.39 12.18ZM33.49 8.79C33.49 10.08 34.37 10.68 36.32 10.95L36.53 10.98C37.28 11.07 38.00 11.13 38.00 11.65C38.00 12.19 37.34 12.49 36.65 12.49C35.76 12.49 34.83 12.04 34.40 11.13L32.98 12.01C33.63 12.99 34.69 13.97 36.61 13.97C38.46 13.97 39.73 12.98 39.73 11.62C39.73 10.35 38.91 9.79 36.68 9.49L36.47 9.46C35.74 9.37 35.22 9.28 35.22 8.78C35.22 8.36 35.59 8.09 36.22 8.09C37.14 8.09 37.84 8.62 38.37 9.25L39.65 8.25C38.71 7.27 37.70 6.64 36.27 6.64C34.66 6.64 33.49 7.50 33.49 8.79ZM40.85 3.98L40.85 10.30C40.85 12.54 42.24 13.97 44.69 13.97C47.14 13.97 48.52 12.54 48.52 10.30L48.52 3.98L46.68 3.98L46.68 10.33C46.68 11.52 45.96 12.26 44.69 12.26C43.41 12.26 42.70 11.52 42.70 10.33L42.70 3.98ZM49.48 6.83L49.48 8.37L51.24 8.37L51.24 12.43C51.24 13.22 51.83 13.78 52.61 13.78L54.52 13.78L54.52 12.24L53.40 12.24C53.14 12.24 53.00 12.10 53.00 11.82L53.00 8.37L54.91 8.37L54.91 6.83L53.00 6.83L53.00 4.68L51.24 4.68L51.24 6.83ZM55.86 4.82C55.86 5.53 56.41 6.02 57.11 6.02C57.81 6.02 58.35 5.53 58.35 4.82C58.35 4.10 57.81 3.61 57.11 3.61C56.41 3.61 55.86 4.10 55.86 4.82ZM57.99 6.83L56.22 6.83L56.22 13.78L57.99 13.78ZM61.43 3.98L59.67 3.98L59.67 13.78L61.43 13.78ZM62.75 4.82C62.75 5.53 63.29 6.02 63.99 6.02C64.69 6.02 65.24 5.53 65.24 4.82C65.24 4.10 64.69 3.61 63.99 3.61C63.29 3.61 62.75 4.10 62.75 4.82ZM64.88 6.83L63.11 6.83L63.11 13.78L64.88 13.78ZM65.86 6.83L65.86 8.37L67.62 8.37L67.62 12.43C67.62 13.22 68.21 13.78 68.99 13.78L70.90 13.78L70.90 12.24L69.78 12.24C69.52 12.24 69.38 12.10 69.38 11.82L69.38 8.37L71.29 8.37L71.29 6.83L69.38 6.83L69.38 4.68L67.62 4.68L67.62 6.83ZM72.24 4.82C72.24 5.53 72.79 6.02 73.49 6.02C74.19 6.02 74.73 5.53 74.73 4.82C74.73 4.10 74.19 3.61 73.49 3.61C72.79 3.61 72.24 4.10 72.24 4.82ZM74.37 6.83L72.60 6.83L72.60 13.78L74.37 13.78ZM75.63 10.25C75.63 12.40 77.13 13.97 79.20 13.97C81.06 13.97 81.87 12.99 82.35 12.26L80.84 11.40C80.60 11.89 80.15 12.43 79.17 12.43C78.16 12.43 77.50 11.72 77.46 10.82L82.60 10.82L82.60 10.14C82.60 8.05 81.19 6.64 79.17 6.64C77.13 6.64 75.63 8.15 75.63 10.25ZM77.48 9.59C77.59 8.76 78.16 8.18 79.16 8.18C80.07 8.18 80.68 8.74 80.78 9.59ZM83.61 8.79C83.61 10.08 84.49 10.68 86.44 10.95L86.65 10.98C87.40 11.07 88.12 11.13 88.12 11.65C88.12 12.19 87.46 12.49 86.77 12.49C85.88 12.49 84.95 12.04 84.52 11.13L83.10 12.01C83.75 12.99 84.81 13.97 86.73 13.97C88.58 13.97 89.85 12.98 89.85 11.62C89.85 10.35 89.03 9.79 86.80 9.49L86.59 9.46C85.86 9.37 85.34 9.28 85.34 8.78C85.34 8.36 85.71 8.09 86.34 8.09C87.26 8.09 87.96 8.62 88.49 9.25L89.77 8.25C88.83 7.27 87.82 6.64 86.39 6.64C84.78 6.64 83.61 7.50 83.61 8.79Z"></path></g><!----><!----></svg>