<svg data-v-423bf9ae="" xmlns="http://www.w3.org/2000/svg" viewBox="0 0 1448.4700363110762 193" class="fontAboveSlogan"><!----><defs data-v-423bf9ae=""><linearGradient data-v-423bf9ae="" gradientTransform="rotate(25)" id="97aa6c92-8b21-4da6-9626-99423e9f7a17" x1="0%" y1="0%" x2="100%" y2="0%"><stop data-v-423bf9ae="" offset="0%" style="stop-color: rgb(0, 118, 221); stop-opacity: 1;"></stop><stop data-v-423bf9ae="" offset="100%" style="stop-color: rgb(230, 0, 233); stop-opacity: 1;"></stop></linearGradient></defs><!----><g data-v-423bf9ae="" id="5c991d09-3954-4f2c-9b6a-a74751098a4b" fill="#ffffff" transform="matrix(9.252120018005371,0,0,9.252120018005371,305.19384765625,-32.79015350341797)"><path d="M0.87 3.98L0.87 13.78L2.66 13.78L2.66 5.94L2.83 5.94L4.86 13.78L7.57 13.78L9.60 5.94L9.77 5.94L9.77 13.78L11.56 13.78L11.56 3.98L8.34 3.98L6.30 11.84L6.13 11.84L4.09 3.98ZM12.91 4.82C12.91 5.53 13.45 6.02 14.15 6.02C14.85 6.02 15.40 5.53 15.40 4.82C15.40 4.10 14.85 3.61 14.15 3.61C13.45 3.61 12.91 4.10 12.91 4.82ZM15.04 6.83L13.27 6.83L13.27 13.78L15.04 13.78ZM16.72 6.83L16.72 13.78L18.48 13.78L18.48 10.19C18.48 8.96 19.08 8.26 20.22 8.26C21.22 8.26 21.78 8.83 21.78 9.80L21.78 13.78L23.55 13.78L23.55 9.63C23.55 7.83 22.39 6.72 20.85 6.72C19.57 6.72 18.93 7.31 18.65 7.95L18.45 7.95L18.45 6.83ZM30.32 6.83L30.32 7.81L30.13 7.81C29.76 7.22 29.15 6.64 27.92 6.64C26.18 6.64 24.72 8.12 24.72 10.19C24.72 12.26 26.18 13.75 27.92 13.75C29.15 13.75 29.76 13.16 30.13 12.57L30.30 12.57L30.30 14.62C30.30 14.90 30.16 15.04 29.90 15.04L25.42 15.04L25.42 16.58L30.69 16.58C31.47 16.58 32.06 16.02 32.06 15.23L32.06 6.83ZM28.39 12.18C27.33 12.18 26.49 11.48 26.49 10.19C26.49 8.90 27.33 8.20 28.39 8.20C29.48 8.20 30.30 8.93 30.30 10.19C30.30 11.45 29.48 12.18 28.39 12.18ZM33.49 8.79C33.49 10.08 34.37 10.68 36.32 10.95L36.53 10.98C37.28 11.07 38.00 11.13 38.00 11.65C38.00 12.19 37.34 12.49 36.65 12.49C35.76 12.49 34.83 12.04 34.40 11.13L32.98 12.01C33.63 12.99 34.69 13.97 36.61 13.97C38.46 13.97 39.73 12.98 39.73 11.62C39.73 10.35 38.91 9.79 36.68 9.49L36.47 9.46C35.74 9.37 35.22 9.28 35.22 8.78C35.22 8.36 35.59 8.09 36.22 8.09C37.14 8.09 37.84 8.62 38.37 9.25L39.65 8.25C38.71 7.27 37.70 6.64 36.27 6.64C34.66 6.64 33.49 7.50 33.49 8.79ZM40.85 3.98L40.85 10.30C40.85 12.54 42.24 13.97 44.69 13.97C47.14 13.97 48.52 12.54 48.52 10.30L48.52 3.98L46.68 3.98L46.68 10.33C46.68 11.52 45.96 12.26 44.69 12.26C43.41 12.26 42.70 11.52 42.70 10.33L42.70 3.98ZM49.48 6.83L49.48 8.37L51.24 8.37L51.24 12.43C51.24 13.22 51.83 13.78 52.61 13.78L54.52 13.78L54.52 12.24L53.40 12.24C53.14 12.24 53.00 12.10 53.00 11.82L53.00 8.37L54.91 8.37L54.91 6.83L53.00 6.83L53.00 4.68L51.24 4.68L51.24 6.83ZM55.86 4.82C55.86 5.53 56.41 6.02 57.11 6.02C57.81 6.02 58.35 5.53 58.35 4.82C58.35 4.10 57.81 3.61 57.11 3.61C56.41 3.61 55.86 4.10 55.86 4.82ZM57.99 6.83L56.22 6.83L56.22 13.78L57.99 13.78ZM61.43 3.98L59.67 3.98L59.67 13.78L61.43 13.78ZM62.75 4.82C62.75 5.53 63.29 6.02 63.99 6.02C64.69 6.02 65.24 5.53 65.24 4.82C65.24 4.10 64.69 3.61 63.99 3.61C63.29 3.61 62.75 4.10 62.75 4.82ZM64.88 6.83L63.11 6.83L63.11 13.78L64.88 13.78ZM65.86 6.83L65.86 8.37L67.62 8.37L67.62 12.43C67.62 13.22 68.21 13.78 68.99 13.78L70.90 13.78L70.90 12.24L69.78 12.24C69.52 12.24 69.38 12.10 69.38 11.82L69.38 8.37L71.29 8.37L71.29 6.83L69.38 6.83L69.38 4.68L67.62 4.68L67.62 6.83ZM72.24 4.82C72.24 5.53 72.79 6.02 73.49 6.02C74.19 6.02 74.73 5.53 74.73 4.82C74.73 4.10 74.19 3.61 73.49 3.61C72.79 3.61 72.24 4.10 72.24 4.82ZM74.37 6.83L72.60 6.83L72.60 13.78L74.37 13.78ZM75.63 10.25C75.63 12.40 77.13 13.97 79.20 13.97C81.06 13.97 81.87 12.99 82.35 12.26L80.84 11.40C80.60 11.89 80.15 12.43 79.17 12.43C78.16 12.43 77.50 11.72 77.46 10.82L82.60 10.82L82.60 10.14C82.60 8.05 81.19 6.64 79.17 6.64C77.13 6.64 75.63 8.15 75.63 10.25ZM77.48 9.59C77.59 8.76 78.16 8.18 79.16 8.18C80.07 8.18 80.68 8.74 80.78 9.59ZM83.61 8.79C83.61 10.08 84.49 10.68 86.44 10.95L86.65 10.98C87.40 11.07 88.12 11.13 88.12 11.65C88.12 12.19 87.46 12.49 86.77 12.49C85.88 12.49 84.95 12.04 84.52 11.13L83.10 12.01C83.75 12.99 84.81 13.97 86.73 13.97C88.58 13.97 89.85 12.98 89.85 11.62C89.85 10.35 89.03 9.79 86.80 9.49L86.59 9.46C85.86 9.37 85.34 9.28 85.34 8.78C85.34 8.36 85.71 8.09 86.34 8.09C87.26 8.09 87.96 8.62 88.49 9.25L89.77 8.25C88.83 7.27 87.82 6.64 86.39 6.64C84.78 6.64 83.61 7.50 83.61 8.79Z"></path></g><!----><!----><g data-v-423bf9ae="" id="60f2f668-eec3-42d9-94fc-5e3b7f0803dc" fill="#ffffff" transform="matrix(4.731861591339111,0,0,4.731861591339111,-5.347021579742432,125.05047607421875)"><path d="M5.04 2.21L1.13 2.21L1.13 11.48L5.04 11.48C7.25 11.48 9.30 9.74 9.30 6.85C9.30 3.95 7.25 2.21 5.04 2.21ZM5.00 10.49L2.18 10.49L2.18 3.21L5.00 3.21C6.97 3.21 8.25 4.86 8.25 6.85C8.25 8.83 6.97 10.49 5.00 10.49ZM20.80 4.37C18.66 4.37 17.33 5.98 17.33 7.98C17.33 9.98 18.66 11.59 20.80 11.59C22.95 11.59 24.28 9.98 24.28 7.98C24.28 5.98 22.95 4.37 20.80 4.37ZM20.80 10.64C19.25 10.64 18.38 9.42 18.38 7.98C18.38 6.54 19.25 5.32 20.80 5.32C22.36 5.32 23.23 6.54 23.23 7.98C23.23 9.42 22.36 10.64 20.80 10.64ZM32.66 4.48L32.66 11.48L33.71 11.48L33.71 7.45C33.71 6.19 34.66 5.32 35.83 5.32C36.97 5.32 37.79 6.16 37.79 7.43L37.79 11.48L38.84 11.48L38.84 7.41C38.84 5.42 37.48 4.37 36.04 4.37C34.90 4.37 34.22 4.90 33.71 5.57L33.71 4.48ZM50.54 4.37C48.50 4.37 47.15 5.98 47.15 7.98C47.15 9.98 48.50 11.59 50.54 11.59C51.70 11.59 52.53 11.12 53.05 10.36L53.05 11.48L54.10 11.48L54.10 4.48L53.05 4.48L53.05 5.61C52.53 4.86 51.70 4.37 50.54 4.37ZM50.68 10.64C49.13 10.64 48.20 9.42 48.20 7.98C48.20 6.54 49.13 5.32 50.68 5.32C52.23 5.32 53.10 6.54 53.10 7.98C53.10 9.42 52.23 10.64 50.68 10.64ZM64.72 11.48L64.72 5.40L66.33 5.40L66.33 4.48L64.72 4.48L64.72 1.97L63.67 1.97L63.67 4.48L62.24 4.48L62.24 5.40L63.67 5.40L63.67 11.48ZM77.46 10.64C76.05 10.64 75.14 9.65 74.98 8.40L80.85 8.40L80.85 7.98C80.85 5.98 79.52 4.37 77.38 4.37C75.24 4.37 73.91 5.98 73.91 7.98C73.91 9.98 75.31 11.59 77.45 11.59C79.11 11.59 80.15 10.72 80.64 9.46L79.49 9.46C79.11 10.16 78.44 10.64 77.46 10.64ZM77.38 5.32C78.72 5.32 79.56 6.23 79.76 7.42L75.00 7.42C75.19 6.23 76.03 5.32 77.38 5.32ZM100.93 11.48L100.93 5.40L102.54 5.40L102.54 4.48L100.93 4.48L100.93 1.97L99.88 1.97L99.88 4.48L98.45 4.48L98.45 5.40L99.88 5.40L99.88 11.48ZM113.58 4.37C111.44 4.37 110.11 5.98 110.11 7.98C110.11 9.98 111.44 11.59 113.58 11.59C115.72 11.59 117.05 9.98 117.05 7.98C117.05 5.98 115.72 4.37 113.58 4.37ZM113.58 10.64C112.03 10.64 111.16 9.42 111.16 7.98C111.16 6.54 112.03 5.32 113.58 5.32C115.14 5.32 116.00 6.54 116.00 7.98C116.00 9.42 115.14 10.64 113.58 10.64ZM143.44 2.21L140.18 6.61L136.86 2.21L135.65 2.21L135.65 11.48L136.70 11.48L136.70 3.81L140.18 8.22L143.61 3.81L143.61 11.48L144.66 11.48L144.66 2.21ZM153.64 11.48L154.69 11.48L154.69 4.48L153.64 4.48ZM153.59 1.93L153.59 3.30L154.73 3.30L154.73 1.93ZM163.51 4.48L163.51 11.48L164.56 11.48L164.56 7.45C164.56 6.19 165.51 5.32 166.67 5.32C167.82 5.32 168.63 6.16 168.63 7.43L168.63 11.48L169.68 11.48L169.68 7.41C169.68 5.42 168.32 4.37 166.88 4.37C165.75 4.37 165.06 4.90 164.56 5.57L164.56 4.48ZM183.89 4.48L183.89 5.60C183.37 4.84 182.55 4.37 181.38 4.37C179.34 4.37 178.00 5.92 178.00 7.92C178.00 9.93 179.34 11.48 181.38 11.48C182.55 11.48 183.37 10.99 183.89 10.23L183.89 11.20C183.89 12.64 183.19 13.41 181.58 13.41C180.52 13.41 179.82 13.01 179.54 12.32L178.37 12.32C178.77 13.54 179.87 14.36 181.64 14.36C183.74 14.36 184.94 13.27 184.94 11.27L184.94 4.48ZM181.52 10.53C179.97 10.53 179.05 9.37 179.05 7.92C179.05 6.48 179.97 5.32 181.52 5.32C183.05 5.32 183.95 6.48 183.95 7.92C183.95 9.37 183.05 10.53 181.52 10.53ZM196.20 4.37C194.39 4.37 193.45 5.11 193.45 6.37C193.45 8.93 198.11 7.84 198.11 9.59C198.11 10.54 196.90 10.70 196.32 10.70C194.96 10.70 194.43 10.00 194.36 9.28L193.27 9.28C193.34 10.51 194.36 11.59 196.31 11.59C198.04 11.59 199.16 10.85 199.16 9.49C199.16 6.86 194.50 7.95 194.50 6.27C194.50 5.59 195.08 5.26 196.17 5.26C197.34 5.26 197.79 5.75 197.88 6.36L198.94 6.36C198.81 5.33 198.04 4.37 196.20 4.37ZM214.45 2.21L214.45 7.52C214.45 9.67 213.02 10.57 211.55 10.57C210.08 10.57 208.67 9.67 208.67 7.52L208.67 2.21L207.62 2.21L207.62 7.49C207.62 9.95 209.24 11.59 211.55 11.59C213.88 11.59 215.50 9.94 215.50 7.49L215.50 2.21ZM226.24 11.48L226.24 5.40L227.85 5.40L227.85 4.48L226.24 4.48L226.24 1.97L225.19 1.97L225.19 4.48L223.76 4.48L223.76 5.40L225.19 5.40L225.19 11.48ZM236.00 11.48L237.05 11.48L237.05 4.48L236.00 4.48ZM235.96 1.93L235.96 3.30L237.09 3.30L237.09 1.93ZM246.92 1.68L245.87 1.68L245.87 11.48L246.92 11.48ZM255.74 11.48L256.79 11.48L256.79 4.48L255.74 4.48ZM255.70 1.93L255.70 3.30L256.83 3.30L256.83 1.93ZM267.41 11.48L267.41 5.40L269.02 5.40L269.02 4.48L267.41 4.48L267.41 1.97L266.36 1.97L266.36 4.48L264.94 4.48L264.94 5.40L266.36 5.40L266.36 11.48ZM277.17 11.48L278.22 11.48L278.22 4.48L277.17 4.48ZM277.13 1.93L277.13 3.30L278.26 3.30L278.26 1.93ZM290.16 10.64C288.75 10.64 287.84 9.65 287.69 8.40L293.55 8.40L293.55 7.98C293.55 5.98 292.22 4.37 290.08 4.37C287.94 4.37 286.61 5.98 286.61 7.98C286.61 9.98 288.01 11.59 290.15 11.59C291.82 11.59 292.85 10.72 293.34 9.46L292.19 9.46C291.82 10.16 291.14 10.64 290.16 10.64ZM290.08 5.32C291.42 5.32 292.26 6.23 292.46 7.42L287.70 7.42C287.90 6.23 288.74 5.32 290.08 5.32ZM304.28 4.37C302.47 4.37 301.53 5.11 301.53 6.37C301.53 8.93 306.19 7.84 306.19 9.59C306.19 10.54 304.98 10.70 304.40 10.70C303.04 10.70 302.51 10.00 302.44 9.28L301.35 9.28C301.42 10.51 302.44 11.59 304.39 11.59C306.12 11.59 307.24 10.85 307.24 9.49C307.24 6.86 302.58 7.95 302.58 6.27C302.58 5.59 303.16 5.26 304.25 5.26C305.42 5.26 305.87 5.75 305.96 6.36L307.02 6.36C306.89 5.33 306.12 4.37 304.28 4.37Z"></path></g></svg>