<svg data-v-423bf9ae="" xmlns="http://www.w3.org/2000/svg" viewBox="0 0 1957.6230916540671 193" class="fontAboveSlogan"><!----><!----><!----><g data-v-423bf9ae="" id="29b29377-4b26-471b-8ced-1449d5cf0f95" fill="black" transform="matrix(9.252120018005371,0,0,9.252120018005371,534.1668701171875,-32.79015350341797)"><path d="M0.87 3.98L0.87 13.78L2.66 13.78L2.66 5.94L2.83 5.94L4.86 13.78L7.57 13.78L9.60 5.94L9.77 5.94L9.77 13.78L11.56 13.78L11.56 3.98L8.34 3.98L6.30 11.84L6.13 11.84L4.09 3.98ZM12.91 4.82C12.91 5.53 13.45 6.02 14.15 6.02C14.85 6.02 15.40 5.53 15.40 4.82C15.40 4.10 14.85 3.61 14.15 3.61C13.45 3.61 12.91 4.10 12.91 4.82ZM15.04 6.83L13.27 6.83L13.27 13.78L15.04 13.78ZM16.72 6.83L16.72 13.78L18.48 13.78L18.48 10.19C18.48 8.96 19.08 8.26 20.22 8.26C21.22 8.26 21.78 8.83 21.78 9.80L21.78 13.78L23.55 13.78L23.55 9.63C23.55 7.83 22.39 6.72 20.85 6.72C19.57 6.72 18.93 7.31 18.65 7.95L18.45 7.95L18.45 6.83ZM30.32 6.83L30.32 7.81L30.13 7.81C29.76 7.22 29.15 6.64 27.92 6.64C26.18 6.64 24.72 8.12 24.72 10.19C24.72 12.26 26.18 13.75 27.92 13.75C29.15 13.75 29.76 13.16 30.13 12.57L30.30 12.57L30.30 14.62C30.30 14.90 30.16 15.04 29.90 15.04L25.42 15.04L25.42 16.58L30.69 16.58C31.47 16.58 32.06 16.02 32.06 15.23L32.06 6.83ZM28.39 12.18C27.33 12.18 26.49 11.48 26.49 10.19C26.49 8.90 27.33 8.20 28.39 8.20C29.48 8.20 30.30 8.93 30.30 10.19C30.30 11.45 29.48 12.18 28.39 12.18ZM33.49 8.79C33.49 10.08 34.37 10.68 36.32 10.95L36.53 10.98C37.28 11.07 38.00 11.13 38.00 11.65C38.00 12.19 37.34 12.49 36.65 12.49C35.76 12.49 34.83 12.04 34.40 11.13L32.98 12.01C33.63 12.99 34.69 13.97 36.61 13.97C38.46 13.97 39.73 12.98 39.73 11.62C39.73 10.35 38.91 9.79 36.68 9.49L36.47 9.46C35.74 9.37 35.22 9.28 35.22 8.78C35.22 8.36 35.59 8.09 36.22 8.09C37.14 8.09 37.84 8.62 38.37 9.25L39.65 8.25C38.71 7.27 37.70 6.64 36.27 6.64C34.66 6.64 33.49 7.50 33.49 8.79ZM40.91 3.98L40.91 13.78L42.76 13.78L42.76 5.71L42.92 5.71L45.16 13.78L48.44 13.78L48.44 3.98L46.59 3.98L46.59 12.04L46.42 12.04L44.18 3.98ZM49.73 10.25C49.73 12.40 51.23 13.97 53.30 13.97C55.16 13.97 55.97 12.99 56.45 12.26L54.94 11.40C54.70 11.89 54.25 12.43 53.27 12.43C52.26 12.43 51.60 11.72 51.56 10.82L56.70 10.82L56.70 10.14C56.70 8.05 55.29 6.64 53.27 6.64C51.23 6.64 49.73 8.15 49.73 10.25ZM51.58 9.59C51.69 8.76 52.26 8.18 53.26 8.18C54.17 8.18 54.78 8.74 54.88 9.59ZM57.26 6.83L57.26 8.37L59.02 8.37L59.02 12.43C59.02 13.22 59.61 13.78 60.40 13.78L62.30 13.78L62.30 12.24L61.18 12.24C60.93 12.24 60.79 12.10 60.79 11.82L60.79 8.37L62.69 8.37L62.69 6.83L60.79 6.83L60.79 4.68L59.02 4.68L59.02 6.83ZM63.36 6.83L64.74 13.78L67.26 13.78L68.35 8.34L68.52 8.34L69.61 13.78L72.13 13.78L73.50 6.83L71.74 6.83L70.91 12.26L70.74 12.26L69.65 6.83L67.21 6.83L66.12 12.26L65.95 12.26L65.13 6.83ZM74.12 10.30C74.12 12.49 75.71 13.97 77.76 13.97C79.80 13.97 81.40 12.49 81.40 10.30C81.40 8.12 79.80 6.64 77.76 6.64C75.71 6.64 74.12 8.12 74.12 10.30ZM75.88 10.30C75.88 9.07 76.64 8.26 77.76 8.26C78.88 8.26 79.63 9.07 79.63 10.30C79.63 11.54 78.88 12.35 77.76 12.35C76.64 12.35 75.88 11.54 75.88 10.30ZM84.39 6.83L82.66 6.83L82.66 13.78L84.42 13.78L84.42 9.88C84.42 8.90 85.06 8.43 85.96 8.43L87.00 8.43L87.00 6.80L86.30 6.80C85.41 6.80 84.83 7.07 84.56 7.84L84.39 7.84ZM95.26 6.83L92.79 6.83L89.96 9.21L89.80 9.21L89.80 3.98L88.03 3.98L88.03 13.78L89.80 13.78L89.80 11.38L90.86 10.50L93.10 13.78L95.14 13.78L92.11 9.45Z"></path></g><!----><!----><g data-v-423bf9ae="" id="eddaaba0-93f8-4236-afe1-ea50b760bb5e" fill="black" transform="matrix(4.691164970397949,0,0,4.691164970397949,-5.301058292388916,125.63487243652344)"><path d="M7.83 3.22L7.83 2.21L1.13 2.21L1.13 11.48L2.18 11.48L2.18 7.46L7.21 7.46L7.21 6.44L2.18 6.44L2.18 3.22ZM20.41 2.10C17.60 2.10 15.71 4.21 15.71 6.85C15.71 9.48 17.60 11.59 20.41 11.59C23.23 11.59 25.12 9.48 25.12 6.85C25.12 4.21 23.23 2.10 20.41 2.10ZM20.41 10.57C18.16 10.57 16.76 8.93 16.76 6.85C16.76 4.76 18.16 3.12 20.41 3.12C22.67 3.12 24.07 4.76 24.07 6.85C24.07 8.93 22.67 10.57 20.41 10.57ZM34.41 4.65C34.41 4.03 34.78 3.08 36.88 3.08C38.57 3.08 39.35 3.82 39.47 4.75L40.54 4.75C40.46 3.36 39.34 2.10 36.88 2.10C34.55 2.10 33.39 3.15 33.39 4.66C33.39 7.84 39.73 6.69 39.73 8.96C39.73 10.05 38.75 10.60 37.18 10.60C35.57 10.60 34.27 10.05 34.20 8.71L33.11 8.71C33.25 10.37 34.37 11.59 37.11 11.59C39.40 11.59 40.78 10.64 40.78 8.92C40.78 5.68 34.41 6.80 34.41 4.65ZM50.02 4.65C50.02 4.03 50.39 3.08 52.49 3.08C54.18 3.08 54.96 3.82 55.08 4.75L56.15 4.75C56.07 3.36 54.95 2.10 52.49 2.10C50.16 2.10 49 3.15 49 4.66C49 7.84 55.34 6.69 55.34 8.96C55.34 10.05 54.36 10.60 52.79 10.60C51.18 10.60 49.88 10.05 49.81 8.71L48.72 8.71C48.86 10.37 49.98 11.59 52.72 11.59C55.01 11.59 56.39 10.64 56.39 8.92C56.39 5.68 50.02 6.80 50.02 4.65ZM80.23 4.48L80.23 5.60C79.72 4.84 78.89 4.37 77.73 4.37C75.68 4.37 74.34 5.92 74.34 7.92C74.34 9.93 75.68 11.48 77.73 11.48C78.89 11.48 79.72 10.99 80.23 10.23L80.23 11.20C80.23 12.64 79.53 13.41 77.92 13.41C76.86 13.41 76.16 13.01 75.88 12.32L74.72 12.32C75.11 13.54 76.22 14.36 77.98 14.36C80.08 14.36 81.28 13.27 81.28 11.27L81.28 4.48ZM77.87 10.53C76.31 10.53 75.39 9.37 75.39 7.92C75.39 6.48 76.31 5.32 77.87 5.32C79.39 5.32 80.29 6.48 80.29 7.92C80.29 9.37 79.39 10.53 77.87 10.53ZM93.73 4.37C91.99 4.37 91.29 5.73 91.15 6.20L91.15 4.48L90.10 4.48L90.10 11.48L91.15 11.48L91.15 8.40C91.15 6.86 92.11 5.42 93.67 5.42L93.80 5.42L93.80 4.37ZM104.79 4.37C102.65 4.37 101.32 5.98 101.32 7.98C101.32 9.98 102.65 11.59 104.79 11.59C106.93 11.59 108.26 9.98 108.26 7.98C108.26 5.98 106.93 4.37 104.79 4.37ZM104.79 10.64C103.24 10.64 102.37 9.42 102.37 7.98C102.37 6.54 103.24 5.32 104.79 5.32C106.34 5.32 107.21 6.54 107.21 7.98C107.21 9.42 106.34 10.64 104.79 10.64ZM122.75 11.48L122.75 4.48L121.70 4.48L121.70 8.51C121.70 9.77 120.75 10.64 119.59 10.64C118.44 10.64 117.63 9.80 117.63 8.53L117.63 4.48L116.58 4.48L116.58 8.55C116.58 10.54 117.94 11.59 119.38 11.59C120.51 11.59 121.20 11.06 121.70 10.39L121.70 11.48ZM135.13 11.59C137.17 11.59 138.52 9.98 138.52 7.98C138.52 5.98 137.17 4.37 135.13 4.37C133.97 4.37 133.14 4.84 132.62 5.60L132.62 4.48L131.57 4.48L131.57 14.25L132.62 14.25L132.62 10.35C133.14 11.10 133.97 11.59 135.13 11.59ZM134.99 5.32C136.54 5.32 137.47 6.54 137.47 7.98C137.47 9.42 136.54 10.64 134.99 10.64C133.43 10.64 132.57 9.42 132.57 7.98C132.57 6.54 133.43 5.32 134.99 5.32ZM149.32 4.37C147.52 4.37 146.58 5.11 146.58 6.37C146.58 8.93 151.24 7.84 151.24 9.59C151.24 10.54 150.02 10.70 149.45 10.70C148.09 10.70 147.56 10.00 147.49 9.28L146.40 9.28C146.47 10.51 147.49 11.59 149.44 11.59C151.17 11.59 152.29 10.85 152.29 9.49C152.29 6.86 147.63 7.95 147.63 6.27C147.63 5.59 148.20 5.26 149.30 5.26C150.47 5.26 150.92 5.75 151.00 6.36L152.07 6.36C151.94 5.33 151.17 4.37 149.32 4.37ZM173.57 4.37C171.53 4.37 170.18 5.98 170.18 7.98C170.18 9.98 171.53 11.59 173.57 11.59C174.73 11.59 175.56 11.12 176.08 10.36L176.08 11.48L177.13 11.48L177.13 4.48L176.08 4.48L176.08 5.61C175.56 4.86 174.73 4.37 173.57 4.37ZM173.71 10.64C172.16 10.64 171.23 9.42 171.23 7.98C171.23 6.54 172.16 5.32 173.71 5.32C175.27 5.32 176.13 6.54 176.13 7.98C176.13 9.42 175.27 10.64 173.71 10.64ZM189.10 2.56L189.10 1.57L189.01 1.57C187.40 1.57 186.42 2.34 186.42 3.86L186.42 4.48L185.22 4.48L185.22 5.40L186.42 5.40L186.42 11.48L187.47 11.48L187.47 5.40L189.10 5.40L189.10 4.48L187.47 4.48L187.47 3.95C187.47 2.98 187.98 2.56 188.96 2.56ZM200.40 2.56L200.40 1.57L200.31 1.57C198.70 1.57 197.72 2.34 197.72 3.86L197.72 4.48L196.52 4.48L196.52 5.40L197.72 5.40L197.72 11.48L198.77 11.48L198.77 5.40L200.40 5.40L200.40 4.48L198.77 4.48L198.77 3.95C198.77 2.98 199.28 2.56 200.26 2.56ZM208.54 11.48L209.59 11.48L209.59 4.48L208.54 4.48ZM208.50 1.93L208.50 3.30L209.64 3.30L209.64 1.93ZM219.46 1.68L218.41 1.68L218.41 11.48L219.46 11.48ZM228.28 11.48L229.33 11.48L229.33 4.48L228.28 4.48ZM228.24 1.93L228.24 3.30L229.38 3.30L229.38 1.93ZM241.11 4.37C239.06 4.37 237.72 5.98 237.72 7.98C237.72 9.98 239.06 11.59 241.11 11.59C242.27 11.59 243.10 11.12 243.61 10.36L243.61 11.48L244.66 11.48L244.66 4.48L243.61 4.48L243.61 5.61C243.10 4.86 242.27 4.37 241.11 4.37ZM241.25 10.64C239.69 10.64 238.77 9.42 238.77 7.98C238.77 6.54 239.69 5.32 241.25 5.32C242.80 5.32 243.67 6.54 243.67 7.98C243.67 9.42 242.80 10.64 241.25 10.64ZM255.29 11.48L255.29 5.40L256.90 5.40L256.90 4.48L255.29 4.48L255.29 1.97L254.24 1.97L254.24 4.48L252.81 4.48L252.81 5.40L254.24 5.40L254.24 11.48ZM268.03 10.64C266.62 10.64 265.71 9.65 265.55 8.40L271.42 8.40L271.42 7.98C271.42 5.98 270.09 4.37 267.95 4.37C265.80 4.37 264.47 5.98 264.47 7.98C264.47 9.98 265.87 11.59 268.02 11.59C269.68 11.59 270.72 10.72 271.21 9.46L270.06 9.46C269.68 10.16 269.01 10.64 268.03 10.64ZM267.95 5.32C269.29 5.32 270.13 6.23 270.33 7.42L265.57 7.42C265.76 6.23 266.60 5.32 267.95 5.32ZM282.66 4.37C280.62 4.37 279.27 5.98 279.27 7.98C279.27 9.98 280.62 11.59 282.66 11.59C283.82 11.59 284.65 11.12 285.17 10.36L285.17 11.48L286.22 11.48L286.22 1.68L285.17 1.68L285.17 5.61C284.65 4.86 283.82 4.37 282.66 4.37ZM282.80 10.64C281.25 10.64 280.32 9.42 280.32 7.98C280.32 6.54 281.25 5.32 282.80 5.32C284.35 5.32 285.22 6.54 285.22 7.98C285.22 9.42 284.35 10.64 282.80 10.64ZM311.14 11.48L312.34 11.48L314.54 4.48L313.42 4.48L311.74 10.18L309.96 4.48L308.81 4.48L307.03 10.18L305.35 4.48L304.23 4.48L306.43 11.48L307.64 11.48L309.39 5.89ZM322.57 11.48L323.62 11.48L323.62 4.48L322.57 4.48ZM322.53 1.93L322.53 3.30L323.67 3.30L323.67 1.93ZM334.25 11.48L334.25 5.40L335.86 5.40L335.86 4.48L334.25 4.48L334.25 1.97L333.20 1.97L333.20 4.48L331.77 4.48L331.77 5.40L333.20 5.40L333.20 11.48ZM344.01 1.68L344.01 11.48L345.06 11.48L345.06 7.45C345.06 6.19 346.01 5.32 347.17 5.32C348.32 5.32 349.13 6.16 349.13 7.43L349.13 11.48L350.18 11.48L350.18 7.41C350.18 5.42 348.82 4.37 347.38 4.37C346.25 4.37 345.56 4.90 345.06 5.57L345.06 1.68ZM376.94 2.21L373.67 6.61L370.36 2.21L369.14 2.21L369.14 11.48L370.19 11.48L370.19 3.81L373.67 8.22L377.10 3.81L377.10 11.48L378.15 11.48L378.15 2.21ZM387.13 11.48L388.18 11.48L388.18 4.48L387.13 4.48ZM387.09 1.93L387.09 3.30L388.22 3.30L388.22 1.93ZM397.00 4.48L397.00 11.48L398.05 11.48L398.05 7.45C398.05 6.19 399.00 5.32 400.16 5.32C401.31 5.32 402.12 6.16 402.12 7.43L402.12 11.48L403.17 11.48L403.17 7.41C403.17 5.42 401.81 4.37 400.37 4.37C399.24 4.37 398.55 4.90 398.05 5.57L398.05 4.48ZM417.38 4.48L417.38 5.60C416.86 4.84 416.04 4.37 414.88 4.37C412.83 4.37 411.49 5.92 411.49 7.92C411.49 9.93 412.83 11.48 414.88 11.48C416.04 11.48 416.86 10.99 417.38 10.23L417.38 11.20C417.38 12.64 416.68 13.41 415.07 13.41C414.01 13.41 413.31 13.01 413.03 12.32L411.87 12.32C412.26 13.54 413.36 14.36 415.13 14.36C417.23 14.36 418.43 13.27 418.43 11.27L418.43 4.48ZM415.02 10.53C413.46 10.53 412.54 9.37 412.54 7.92C412.54 6.48 413.46 5.32 415.02 5.32C416.54 5.32 417.44 6.48 417.44 7.92C417.44 9.37 416.54 10.53 415.02 10.53Z"></path></g></svg>